<svg id="Layer_1" data-name="Layer 1" xmlns="http://www.w3.org/2000/svg" viewBox="0 0 824.5083 98.9942">
  <path id="type_CompoundPathItem_" data-name="type &amp;lt;CompoundPathItem&amp;gt;" d="M358.8453,.1087h-27.0183l-58.403,48.6305V.1087h-19.2239V98.9942h19.2239v-26.5325l17.9049-15.1885,43.4165,41.7209h26.0454l-55.1193-53.8875L358.8453,.1087ZM171.4201,98.9942h19.2239V.1087h-19.2239V98.9942Zm-84.1534-28.4087L21.2928,.1087H0V98.9942H19.2239V27.1758L86.5976,98.9942h19.893V.1087h-19.2239V70.5855ZM480.2239,0h-58.7664c-13.4689,0-24.3876,10.9187-24.3876,24.3876v50.121c0,13.4689,10.9187,24.3876,24.3876,24.3876h58.7664c13.4691,0,24.3876-10.9187,24.3876-24.3876V24.3876c0-13.4689-10.9185-24.3876-24.3876-24.3876Zm4.4029,72.3454c0,4.0495-3.283,7.3323-7.3324,7.3323h-52.9074c-4.0495,0-7.3322-3.2828-7.3322-7.3323V26.5509c0-4.0495,3.2827-7.3323,7.3322-7.3323h52.9074c4.0495,0,7.3324,3.2828,7.3324,7.3323v45.7945ZM574.4938,.1087h-18.131V98.9942h74.2677l9.6752-17.5916h-65.8119V.1087ZM741.8098,.1087h-19.0521l-53.5568,98.8855h21.7011l41.3447-78.025,41.3447,78.025h21.7011L741.8098,.1087Z" style="fill: #272c3f;"/>
  <path id="type_CompoundPathItem_-2" data-name="type &amp;lt;CompoundPathItem&amp;gt;" d="M824.5083,86.4516c0,7.0266-5.5161,12.5426-12.6965,12.5426-7.1035,0-12.7703-5.5161-12.7703-12.5426,0-6.8758,5.6668-12.3919,12.7703-12.3919,7.1804,0,12.6965,5.5161,12.6965,12.3919Zm-22.2919,0c0,5.5161,4.0794,9.9,9.6723,9.9,5.4391,0,9.4447-4.3839,9.4447-9.8261,0-5.5161-4.0055-9.9738-9.5216-9.9738s-9.5954,4.4578-9.5954,9.9Zm7.6326,6.4974h-2.8734v-12.3919c1.1352-.2277,2.7196-.3784,4.7623-.3784,2.3412,0,3.3995,.3784,4.307,.9075,.6799,.5291,1.209,1.5105,1.209,2.7196,0,1.3598-1.0583,2.4181-2.5688,2.8734v.1507c1.206,.4522,1.8889,1.3598,2.2643,3.0211,.3784,1.8889,.6061,2.6457,.9075,3.098h-3.098c-.3784-.4522-.603-1.5874-.9814-3.0211-.2277-1.3598-.9845-1.9658-2.5688-1.9658h-1.3598v4.9869Zm.0738-7.0266h1.3598c1.5874,0,2.8734-.5291,2.8734-1.8151,0-1.1321-.8337-1.8889-2.6457-1.8889-.7568,0-1.286,.0769-1.5874,.1538v3.5502Z" style="fill: #272c3f;"/>
</svg>
